<svg id="Layer_1" data-name="Layer 1" xmlns="http://www.w3.org/2000/svg" viewBox="0 0 272.5 80"><defs><style>.cls-1{fill:#fff;}.cls-2{fill:#9d9d9c;}.cls-3{fill:#1d1d1b;}.cls-4{fill:#c90c0f;}</style></defs><path class="cls-1" d="M272.5,71s0,9-9,9H9s-9,0-9-9V9S0,0,9,0H263.5s9,0,9,9Z"/><path class="cls-2" d="M141.67,51a.54.54,0,0,1-.54.53H130.89a.54.54,0,0,1-.54-.53V43.61a.54.54,0,0,1,.54-.53h10.24a.54.54,0,0,1,.54.53Zm-.45-10.16H130.8a2.74,2.74,0,0,0-2.74,2.74V51a2.74,2.74,0,0,0,2.74,2.73h10.42A2.74,2.74,0,0,0,144,51V43.6a2.74,2.74,0,0,0-2.74-2.74"/><polygon class="cls-3" points="21.64 29.73 21.64 39.3 19.24 39.3 19.24 26.38 21.29 26.38 30.97 35.79 30.97 26.38 32.89 26.38 33.34 26.38 33.34 39.3 31.47 39.3 21.64 29.73"/><polygon class="cls-3" points="45.62 29.73 45.62 39.3 43.22 39.3 43.22 26.38 45.27 26.38 54.95 35.79 54.95 26.38 56.87 26.38 57.32 26.38 57.32 39.3 55.45 39.3 45.62 29.73"/><polygon class="cls-3" points="95.32 29.73 95.32 39.3 92.93 39.3 92.93 26.38 94.97 26.38 104.66 35.79 104.66 26.38 106.57 26.38 107.02 26.38 107.02 39.3 105.15 39.3 95.32 29.73"/><polygon class="cls-3" points="39.03 26.38 39.47 26.38 39.47 39.3 37.08 39.3 37.08 26.38 39.03 26.38"/><polygon class="cls-3" points="73.61 26.38 74.04 26.38 74.04 28.6 68.28 28.6 68.28 39.3 65.79 39.3 65.79 28.6 60.03 28.6 60.03 26.38 73.61 26.38"/><polygon class="cls-3" points="88.93 26.38 89.38 26.38 89.38 28.6 79.13 28.6 79.13 31.5 87.06 31.5 87.06 33.72 79.13 33.72 79.13 37.07 89.38 37.07 89.38 39.3 76.76 39.3 76.76 26.38 88.93 26.38"/><path class="cls-3" d="M120.32,37.07H113V28.6h7.35c2.3,0,3.11,2.29,3.11,4.23s-.81,4.24-3.11,4.24m3.92-8.8a4.79,4.79,0,0,0-4-1.89h-9.59V39.3h9.59a4.81,4.81,0,0,0,4-1.89,7.46,7.46,0,0,0,1.34-4.58,7.39,7.39,0,0,0-1.34-4.56"/><path class="cls-3" d="M141.67,36.54a.54.54,0,0,1-.54.53H130.89a.54.54,0,0,1-.54-.53V29.13a.54.54,0,0,1,.54-.53h10.24a.54.54,0,0,1,.54.53Zm-.45-10.16H130.8a2.74,2.74,0,0,0-2.74,2.74v7.44a2.75,2.75,0,0,0,2.74,2.74h10.42A2.75,2.75,0,0,0,144,36.56V29.12a2.74,2.74,0,0,0-2.74-2.74"/><path class="cls-3" d="M219,48.35a39.31,39.31,0,0,0,11.81,1.77c4.47,0,6.33-1.53,6.33-3.46,0-1.73-1.73-2.74-6.67-4.55-6.6-2.44-11.45-4.37-11.45-8.7,0-4.5,5.83-7.14,14.72-7.14a41.25,41.25,0,0,1,9.44.86l0,4.26c-3-.57-5.61-1.54-9.71-1.54-4.39,0-6.26,1.4-6.26,2.83,0,2.09,2.88,3.09,7.94,4.89,7,2.52,10.95,4.46,10.95,8.71s-4.9,7.52-16,7.52A65.18,65.18,0,0,1,219,52.94Z"/><path class="cls-3" d="M195.41,30h-5.26V50h5.26c8.08,0,13.18-3.45,13.18-9.92s-5.1-10-13.18-10m14.13,21.78c-2.6,1.18-7.53,1.92-11.83,1.92H181.26V26.33h16.45c4.3,0,9.23.76,11.83,1.93C215.88,31.12,218,35.7,218,40s-2,8.91-8.41,11.78"/><path class="cls-4" d="M169.72,38.74s7.68-1.23,7.68-6-8.17-6.59-16.87-6.59a78.47,78.47,0,0,0-13,1v4.25a45.91,45.91,0,0,1,11.62-1.6c5,0,8.78,1.49,8.78,3.59,0,2.53-3.76,4-11.85,4h-3.72v3.82h3.45c8.53,0,13.38,1.28,13.38,4.41,0,2.79-4.33,4.49-9.73,4.49a46.68,46.68,0,0,1-12.52-2v4.57a74.35,74.35,0,0,0,14.43,1.19c9.19,0,17.18-3,17.18-8.17,0-4.36-5.54-6.93-8.82-6.93"/><polygon class="cls-3" points="248.3 50.01 247.44 50.01 247.44 49.55 249.73 49.55 249.73 50.01 248.86 50.01 248.86 52.59 248.3 52.59 248.3 50.01"/><path class="cls-3" d="M252.66,51.35c0-.4,0-.87,0-1.28h0c-.1.37-.23.78-.36,1.16l-.45,1.32h-.42l-.41-1.3c-.12-.39-.22-.8-.31-1.18h0c0,.4,0,.88-.06,1.29l-.07,1.23H250l.21-3H251l.4,1.22c.1.35.2.72.28,1h0c.08-.33.18-.7.3-1.06l.42-1.21h.72l.18,3h-.54Z"/></svg>