<svg id="Layer_1" data-name="Layer 1" xmlns="http://www.w3.org/2000/svg" viewBox="0 0 1314.83 384.51"><defs><style>.cls-1{fill:#e30518;}.cls-2{fill:#fff;}</style></defs><rect class="cls-1" width="1314.83" height="384.51"/><g id="switch-logo"><g id="switch"><path id="Caminho_255" data-name="Caminho 255" class="cls-2" d="M145.43,70.69a62.7,62.7,0,0,0-49.74,45.72c-2.21,8.49-2.36,13.46-2.11,79.32.15,60.48.2,61.87,1.21,66.56a63,63,0,0,0,48.88,49c3.32.75,7.53.91,34.71,1.06,28.13.2,31.05.15,31.8-.61s.8-10.45.8-120.37c0-81.47-.15-119.85-.5-120.56-.51-.9-1.36-1-30.8-.9A326.13,326.13,0,0,0,145.43,70.69Zm45.49,120.57V293l-20.45-.24c-18.84-.21-20.84-.3-24.61-1.26a42.6,42.6,0,0,1-31.54-32.85c-1.11-5.08-1.11-130.06,0-135a43.13,43.13,0,0,1,26-31.1c6.63-2.67,9.71-3,31.2-3l19.44,0Z"/><path id="Caminho_256" data-name="Caminho 256" class="cls-2" d="M149.75,120.17a26.73,26.73,0,0,0-10.55,5.28,22.28,22.28,0,0,0-7.49,18.69,15.8,15.8,0,0,0,2.07,8.23,22.84,22.84,0,0,0,10.8,10.85,15.53,15.53,0,0,0,8.59,2,18.24,18.24,0,0,0,8-.9,22.68,22.68,0,0,0,15.63-25.12,23.05,23.05,0,0,0-26.37-19.16C150.22,120.08,150,120.12,149.75,120.17Z"/><path id="Caminho_257" data-name="Caminho 257" class="cls-2" d="M235.45,70.24c-.2.15-.35,54.59-.35,121,0,109.57,0,120.67.8,121,1.36.5,40.34.3,45.16-.2a62.71,62.71,0,0,0,48.17-33.16,73.89,73.89,0,0,0,3.77-8.78c3.17-9.45,3.06-6.94,3.06-79.12,0-57.63-.09-66.22-.8-69.88a62.38,62.38,0,0,0-51.14-50.44,197.5,197.5,0,0,0-26.42-.75C245.64,69.89,235.6,70,235.45,70.24Zm53.63,109.43A24.59,24.59,0,0,1,306,195.35a26.23,26.23,0,0,1,0,16,24.37,24.37,0,0,1-46.42-1.2,28.92,28.92,0,0,1,.2-14.17A24.4,24.4,0,0,1,289.08,179.67Z"/></g><g id="typograph"><path id="Caminho_258" data-name="Caminho 258" class="cls-2" d="M1165.79,71.71a37,37,0,0,0-25.4,41.59,35.32,35.32,0,0,0,19.3,26.77,35.69,35.69,0,0,0,41.14-5,34,34,0,0,0,12.29-27.58,34.58,34.58,0,0,0-10.45-26.31A39.42,39.42,0,0,0,1165.79,71.71Zm20.33,16.77a19.78,19.78,0,0,1,11.26,17.13A19.85,19.85,0,0,1,1184.65,127a21.29,21.29,0,0,1-28.51-24.36,19.29,19.29,0,0,1,10.68-14,21.92,21.92,0,0,1,19.3-.12Z"/><path id="Caminho_259" data-name="Caminho 259" class="cls-2" d="M395.62,107.46v35.18l7.24-.35L410,142l.58-22.18.57-22.18L427.79,120l16.67,22.52,6.89-.23,6.9-.34V73l-7.12-.34-7.24-.35v45.38L427,95.06,410,72.42h-14.4Z"/><path id="Caminho_260" data-name="Caminho 260" class="cls-2" d="M510.52,107.44v35h14.94V72.39H510.52Z"/><path id="Caminho_261" data-name="Caminho 261" class="cls-2" d="M577.73,73.88c-.35.81-.46,16.43-.35,34.7l.35,33.32,7.24.35,7.12.34V96.05l17.23,23.2,17.23,23.21h13.79V72.39H625.41l-.23,22.06-.35,22.06L608.28,94.45,591.86,72.39h-6.78C580.61,72.39,578.08,72.85,577.73,73.88Z"/><path id="Caminho_262" data-name="Caminho 262" class="cls-2" d="M689.42,73.2a20.7,20.7,0,0,0-.81,7.46v6.68h23v55.15h14.94V87.34h21.83v-15H719.3A286.45,286.45,0,0,0,689.42,73.2Z"/><path id="Caminho_263" data-name="Caminho 263" class="cls-2" d="M798.91,107.44v35h54V128.69H812.68V112.61h36.77V100H812.68V86.18L832.56,86l19.76-.35.35-6.67.34-6.55h-54.1Z"/><path id="Caminho_264" data-name="Caminho 264" class="cls-2" d="M909.79,73.88c-.34.81-.46,16.43-.34,34.7l.34,33.32,7.24.35,7.13.34V96.05l17.23,23.2,17.23,23.21h13.79V72.39H957.48l-.24,22.06-.34,22.06L940.35,94.45,923.92,72.39h-6.78C912.66,72.39,910.13,72.85,909.79,73.88Z"/><path id="Caminho_265" data-name="Caminho 265" class="cls-2" d="M1031,107.34v35.18h15.28c17.69,0,26.08-1.72,33.66-7a34.35,34.35,0,0,0-6.2-60c-4.72-2.18-7.93-2.53-24-2.87l-18.72-.5Zm37.58-17.81a20.26,20.26,0,0,1,9,27c-3.67,7.58-11.14,11-24.26,11h-8.49V87.35h9.53a34.47,34.47,0,0,1,14.26,2.16Z"/><path id="Caminho_266" data-name="Caminho 266" class="cls-2" d="M996.31,173.62a69.78,69.78,0,0,0-40,118.23A62.18,62.18,0,0,0,988,310.24a69.32,69.32,0,0,0,60-12.07c6.78-5.05,15.62-14.93,14.93-16.66-.23-.46-4.94-4.71-10.57-9.65L1042.27,263l-3.1,4a42,42,0,0,1-59,6.89,39.24,39.24,0,0,1-3.15-2.75,50.72,50.72,0,0,1-7.7-10.58A28.67,28.67,0,0,1,966.09,243,30.33,30.33,0,0,1,969,225.77a41.68,41.68,0,0,1,47.8-21.83,44.66,44.66,0,0,1,21.6,13.55l3.9,4.72,5.06-4.14c2.76-2.18,7.58-6.44,10.68-9.19l5.75-5.17-4.49-5.51A70.64,70.64,0,0,0,996.31,173.62Z"/><path id="Caminho_267" data-name="Caminho 267" class="cls-2" d="M428,178.1c-27.34,7.24-41.48,25.51-35.39,46.19C397,239.57,411.48,247,450,253.93c25.86,4.6,33.44,8.39,33.44,16.55,0,5.63-3.33,9.77-10.57,13.1-6.21,2.87-7.59,3.1-23.21,3.1a77.73,77.73,0,0,1-39.43-7.7,35,35,0,0,0-8.16-3.1c-1.37,1.72-12.29,22.06-11.95,22.29a184.45,184.45,0,0,0,27.12,10,162.68,162.68,0,0,0,53.42,1.6c25.74-4.85,38.5-16.66,39.64-36.53.92-16.44-3.67-24.94-17.81-32.29-10.11-5.28-18.84-7.81-41.13-12.3-19.41-3.79-24.93-5.63-28.95-9.42a9.08,9.08,0,0,1,0-12.86l.11-.12c8.27-8.27,37.92-8.62,60.9-.57a17.28,17.28,0,0,0,7.7,1.49,220.31,220.31,0,0,0,9.1-21.49,128.33,128.33,0,0,0-27.46-8A126.2,126.2,0,0,0,428,178.1Z"/><path id="Caminho_268" data-name="Caminho 268" class="cls-2" d="M525.91,178.9c.35,1.15,8.39,29.76,17.93,63.54s17.59,62.39,17.92,63.42c.58,1.82,2.43,2.07,16.55,2.07h16l1.26-4.37c11.37-41.13,22.87-79.73,23.44-78.36.34.92,5.74,19.76,11.95,41.94l11.25,40.21,16.09.35,16.09.35,18.27-64.12c10-35.27,18.38-64.8,18.73-65.6.34-1-2.88-1.38-14-1.38H683l-1.61,5.4c-.92,3.1-6.44,23.78-12.3,46s-11,40.56-11.49,40.56-5.74-17.46-11.94-38.82-12.3-41.94-13.56-46l-2.19-7.24-11.71.35-11.72.34L593,223.5c-7.36,25.28-13.45,46.19-13.56,46.54s-5.28-18.27-11.37-41.36-12-44.12-12.64-46.88l-1.38-4.86H539.71C526.49,177,525.34,177.07,525.91,178.9Z"/><path id="Caminho_269" data-name="Caminho 269" class="cls-2" d="M743.76,242.44V308h29.88l-.23-65.26-.35-65.15-14.59-.34-14.71-.37Z"/><path id="Caminho_270" data-name="Caminho 270" class="cls-2" d="M804.66,191.31v14.37H846V307.94h28.73V205.68l20.45-.23,20.34-.35V177.53l-55.38-.35-55.5-.23Z"/><path id="Caminho_271" data-name="Caminho 271" class="cls-2" d="M1093.05,242.44V308h27.58v-51.7h60.89V308h27.58l-.23-65.26-.34-65.15-13.45-.34-13.56-.35v51.82h-60.89V177h-27.58Z"/></g></g></svg>